<svg xmlns="http://www.w3.org/2000/svg" width="23" height="35" viewBox="0 0 23 35" fill="none">
<path d="M23 10.8897C23 4.89083 17.825 0 11.5 0C5.175 0 0 4.89083 0 10.8897V24.1103C0 30.1092 5.175 35 11.5 35C17.825 35 23 30.1092 23 24.1103V10.8897ZM21.3571 24.1103C21.3571 29.2686 16.9214 33.4716 11.5 33.4716C6.07857 33.4716 1.64286 29.2686 1.64286 24.1103V10.8897C1.64286 5.73144 6.07857 1.52838 11.5 1.52838C16.9214 1.52838 21.3571 5.73144 21.3571 10.8897V24.1103Z" fill="black"/>
<path d="M11.5 11C12.3284 11 13 10.3284 13 9.5C13 8.67157 12.3284 8 11.5 8C10.6716 8 10 8.67157 10 9.5C10 10.3284 10.6716 11 11.5 11Z" fill="black"/>
</svg>